# xmcd CD database file
#
# Track frame offsets:
#	150
#	17060
#	35917
#	50605
#	71925
#	92142
#	111100
#	130320
#	147132
#	165740
#	177855
#
# Disc length: 2648 seconds
#
# Revision: 3
# Processed by: cddbd v1.5.2PL0 Copyright (c) Steve Scherf et al.
# Submitted via: CDex 1.51
#
DISCID=a00a560b
DTITLE=Bonnie Raitt - Fundamental
DYEAR=1998
DGENRE=Rock
TTITLE0=The Fundamental Things
TTITLE1=Cure For Love
TTITLE2=Round and Round
TTITLE3=Spit Of Love
TTITLE4=Lover's Will
TTITLE5=Blue For No Reason
TTITLE6=Meet Me Half Way
TTITLE7=I'm On Your Side
TTITLE8=Fearless Love
TTITLE9=I Need Love
TTITLE10=One Belief Away
EXTD=Capitol - EMI, 7243 85639722 YEAR: 1998
EXTT0=
EXTT1=
EXTT2=
EXTT3=
EXTT4=
EXTT5=
EXTT6=
EXTT7=
EXTT8=
EXTT9=
EXTT10=
PLAYORDER=
